<?xml version="1.0" encoding="utf-8"?>
<!-- Generator: Adobe Illustrator 19.0.0, SVG Export Plug-In . SVG Version: 6.00 Build 0)  -->
<svg version="1.1" id="Capa_2" xmlns="http://www.w3.org/2000/svg" xmlns:xlink="http://www.w3.org/1999/xlink" x="0px" y="0px"
	 viewBox="0 0 1919.8 197.7" style="enable-background:new 0 0 1919.8 197.7;" xml:space="preserve">
<style type="text/css">
	.st0{fill:#FFFFFF;}
</style>
<path id="XMLID_69_" class="st0" d="M1919.8,197.7c0-65.9,0-131.8,0-197.7c-16.3,11.5-34.3,19.8-52.7,27
	c-17.2,6.7-34.5,13.3-52.1,18.9c-36.7,11.8-74.2,20.3-112.3,26.2c-44.7,6.9-89.6,11.5-134.8,12.2c-34.8,0.5-69.6,1.1-104.4,0.1
	c-36.1-1-72.2-3.6-108.2-6.1c-33-2.4-66-5.4-99-8.7c-33.8-3.4-67.5-7.4-101.2-11.2c-32.2-3.6-64.5-7.1-96.7-10.7
	c-25.6-2.8-51.3-5.9-76.9-8.5c-29.1-3-58.3-5.7-87.5-8.3c-26.5-2.3-53.1-4.5-79.7-6.3c-25.2-1.6-50.5-2.8-75.8-3.7
	c-26.5-0.9-52.9-1.9-79.4-1.8c-33.1,0.1-66.3,1-99.4,2.2c-45.2,1.6-90.1,6.1-134.8,12.7c-27.8,4.1-55.5,9.5-83.1,14.9
	c-38.3,7.4-75.8,17.9-112.9,29.8c-19.6,6.3-38.9,13.8-58.2,21c-39.8,14.9-78.1,33.2-115.4,53.5c-17.1,9.3-33.7,19.5-50.6,29.2
	c-1.6,0.9-3.2,1.7-4.8,2.5c0,4.2,0,8.5,0,12.7H1919.8z"/>
</svg>
